<mxfile host="Electron" modified="2024-02-16T21:06:57.214Z" agent="Mozilla/5.0 (Windows NT 10.0; Win64; x64) AppleWebKit/537.36 (KHTML, like Gecko) draw.io/23.0.2 Chrome/120.0.6099.109 Electron/28.1.0 Safari/537.36" etag="HaVoh586ar4ogAtYhZdl" version="23.0.2" type="device">
  <diagram name="Page-1" id="pi1Trm2yB1Krre_eDKj0">
    <mxGraphModel dx="1366" dy="813" grid="1" gridSize="10" guides="1" tooltips="1" connect="1" arrows="1" fold="1" page="1" pageScale="1" pageWidth="1200" pageHeight="1920" math="0" shadow="0">
      <root>
        <mxCell id="0" />
        <mxCell id="1" parent="0" />
        <mxCell id="h4NLX7vuD1O3hU5bMPrj-6" value="" style="html=1;align=center;verticalAlign=middle;rounded=1;absoluteArcSize=1;arcSize=10;dashed=1;whiteSpace=wrap;" vertex="1" parent="1">
          <mxGeometry x="200" y="470" width="990" height="190" as="geometry" />
        </mxCell>
        <mxCell id="h4NLX7vuD1O3hU5bMPrj-2" value="&lt;b&gt;Sign in&lt;/b&gt;" style="rounded=1;whiteSpace=wrap;html=1;fillColor=#fff2cc;strokeColor=#d6b656;opacity=80;" vertex="1" parent="1">
          <mxGeometry x="250" y="525" width="120" height="60" as="geometry" />
        </mxCell>
        <mxCell id="h4NLX7vuD1O3hU5bMPrj-4" value="" style="endArrow=open;html=1;endSize=12;startArrow=none;startSize=14;startFill=0;edgeStyle=orthogonalEdgeStyle;align=center;verticalAlign=bottom;endFill=0;rounded=0;exitX=1;exitY=0.5;exitDx=0;exitDy=0;entryX=0;entryY=0.5;entryDx=0;entryDy=0;" edge="1" parent="1" source="h4NLX7vuD1O3hU5bMPrj-7" target="h4NLX7vuD1O3hU5bMPrj-2">
          <mxGeometry y="3" relative="1" as="geometry">
            <mxPoint x="520" y="440" as="sourcePoint" />
            <mxPoint x="680" y="440" as="targetPoint" />
          </mxGeometry>
        </mxCell>
        <mxCell id="h4NLX7vuD1O3hU5bMPrj-5" value="&quot;Sign in&quot;" style="endArrow=open;html=1;endSize=12;startArrow=none;startSize=14;startFill=0;edgeStyle=orthogonalEdgeStyle;align=center;verticalAlign=bottom;endFill=0;rounded=0;exitX=1;exitY=0.5;exitDx=0;exitDy=0;entryX=0;entryY=0.5;entryDx=0;entryDy=0;" edge="1" parent="1" source="h4NLX7vuD1O3hU5bMPrj-2" target="h4NLX7vuD1O3hU5bMPrj-10">
          <mxGeometry y="3" relative="1" as="geometry">
            <mxPoint x="515" y="420" as="sourcePoint" />
            <mxPoint x="500" y="555" as="targetPoint" />
          </mxGeometry>
        </mxCell>
        <mxCell id="h4NLX7vuD1O3hU5bMPrj-7" value="" style="ellipse;" vertex="1" parent="1">
          <mxGeometry x="180" y="540" width="30" height="30" as="geometry" />
        </mxCell>
        <mxCell id="h4NLX7vuD1O3hU5bMPrj-8" value="" style="shape=sumEllipse;perimeter=ellipsePerimeter;html=1;backgroundOutline=1;" vertex="1" parent="1">
          <mxGeometry x="1180" y="540" width="30" height="30" as="geometry" />
        </mxCell>
        <mxCell id="h4NLX7vuD1O3hU5bMPrj-10" value="Data validation&lt;br&gt;&amp;nbsp;on frontend" style="rounded=1;whiteSpace=wrap;html=1;" vertex="1" parent="1">
          <mxGeometry x="430" y="525" width="120" height="60" as="geometry" />
        </mxCell>
        <mxCell id="h4NLX7vuD1O3hU5bMPrj-11" value="Data validation&lt;br&gt;on backend" style="rounded=1;whiteSpace=wrap;html=1;" vertex="1" parent="1">
          <mxGeometry x="610" y="525" width="120" height="60" as="geometry" />
        </mxCell>
        <mxCell id="h4NLX7vuD1O3hU5bMPrj-12" value="Check user account" style="rounded=1;whiteSpace=wrap;html=1;" vertex="1" parent="1">
          <mxGeometry x="790" y="525" width="120" height="60" as="geometry" />
        </mxCell>
        <mxCell id="h4NLX7vuD1O3hU5bMPrj-20" value="[ok]" style="endArrow=open;html=1;endSize=12;startArrow=none;startSize=14;startFill=0;align=center;verticalAlign=bottom;endFill=0;rounded=0;exitX=1;exitY=0.5;exitDx=0;exitDy=0;entryX=0;entryY=0.5;entryDx=0;entryDy=0;" edge="1" parent="1" source="h4NLX7vuD1O3hU5bMPrj-10" target="h4NLX7vuD1O3hU5bMPrj-11">
          <mxGeometry y="3" relative="1" as="geometry">
            <mxPoint x="340" y="314.5" as="sourcePoint" />
            <mxPoint x="540" y="315" as="targetPoint" />
          </mxGeometry>
        </mxCell>
        <mxCell id="h4NLX7vuD1O3hU5bMPrj-21" value="[ok]" style="endArrow=open;html=1;endSize=12;startArrow=none;startSize=14;startFill=0;align=center;verticalAlign=bottom;endFill=0;rounded=0;exitX=1;exitY=0.5;exitDx=0;exitDy=0;entryX=0;entryY=0.5;entryDx=0;entryDy=0;" edge="1" parent="1" source="h4NLX7vuD1O3hU5bMPrj-11" target="h4NLX7vuD1O3hU5bMPrj-12">
          <mxGeometry y="3" relative="1" as="geometry">
            <mxPoint x="560" y="565" as="sourcePoint" />
            <mxPoint x="620" y="565" as="targetPoint" />
          </mxGeometry>
        </mxCell>
        <mxCell id="h4NLX7vuD1O3hU5bMPrj-22" value="[ok]" style="endArrow=open;html=1;endSize=12;startArrow=none;startSize=14;startFill=0;align=center;verticalAlign=bottom;endFill=0;rounded=0;exitX=1;exitY=0.5;exitDx=0;exitDy=0;entryX=0;entryY=0.5;entryDx=0;entryDy=0;" edge="1" parent="1" source="h4NLX7vuD1O3hU5bMPrj-12" target="h4NLX7vuD1O3hU5bMPrj-145">
          <mxGeometry y="3" relative="1" as="geometry">
            <mxPoint x="740" y="565" as="sourcePoint" />
            <mxPoint x="1000" y="555" as="targetPoint" />
          </mxGeometry>
        </mxCell>
        <mxCell id="h4NLX7vuD1O3hU5bMPrj-23" value="" style="rhombus;whiteSpace=wrap;html=1;" vertex="1" parent="1">
          <mxGeometry x="480" y="630" width="20" height="10" as="geometry" />
        </mxCell>
        <mxCell id="h4NLX7vuD1O3hU5bMPrj-24" value="" style="endArrow=open;html=1;endSize=12;startArrow=none;startSize=14;startFill=0;align=center;verticalAlign=bottom;endFill=0;rounded=0;exitX=0;exitY=0.5;exitDx=0;exitDy=0;entryX=0.5;entryY=1;entryDx=0;entryDy=0;edgeStyle=orthogonalEdgeStyle;" edge="1" parent="1" source="h4NLX7vuD1O3hU5bMPrj-23" target="h4NLX7vuD1O3hU5bMPrj-2">
          <mxGeometry y="3" relative="1" as="geometry">
            <mxPoint x="290" y="684.5" as="sourcePoint" />
            <mxPoint x="400" y="675" as="targetPoint" />
          </mxGeometry>
        </mxCell>
        <mxCell id="h4NLX7vuD1O3hU5bMPrj-25" value="[error]" style="endArrow=open;html=1;endSize=12;startArrow=none;startSize=14;startFill=0;align=center;verticalAlign=bottom;endFill=0;rounded=0;entryX=0.5;entryY=0;entryDx=0;entryDy=0;exitX=0.5;exitY=1;exitDx=0;exitDy=0;" edge="1" parent="1" target="h4NLX7vuD1O3hU5bMPrj-23" source="h4NLX7vuD1O3hU5bMPrj-10">
          <mxGeometry x="0.0082" y="20" relative="1" as="geometry">
            <mxPoint x="490" y="600" as="sourcePoint" />
            <mxPoint x="490" y="740" as="targetPoint" />
            <mxPoint y="-1" as="offset" />
          </mxGeometry>
        </mxCell>
        <mxCell id="h4NLX7vuD1O3hU5bMPrj-27" value="" style="rhombus;whiteSpace=wrap;html=1;" vertex="1" parent="1">
          <mxGeometry x="659" y="629" width="20" height="10" as="geometry" />
        </mxCell>
        <mxCell id="h4NLX7vuD1O3hU5bMPrj-28" value="" style="endArrow=open;html=1;endSize=12;startArrow=none;startSize=14;startFill=0;align=center;verticalAlign=bottom;endFill=0;rounded=0;exitX=0;exitY=0.5;exitDx=0;exitDy=0;entryX=1;entryY=0.5;entryDx=0;entryDy=0;" edge="1" parent="1" source="h4NLX7vuD1O3hU5bMPrj-27" target="h4NLX7vuD1O3hU5bMPrj-23">
          <mxGeometry y="3" relative="1" as="geometry">
            <mxPoint x="460" y="669.5" as="sourcePoint" />
            <mxPoint x="570" y="660" as="targetPoint" />
          </mxGeometry>
        </mxCell>
        <mxCell id="h4NLX7vuD1O3hU5bMPrj-29" value="[error]" style="endArrow=open;html=1;endSize=12;startArrow=none;startSize=14;startFill=0;align=center;verticalAlign=bottom;endFill=0;rounded=0;entryX=0.5;entryY=0;entryDx=0;entryDy=0;exitX=0.5;exitY=1;exitDx=0;exitDy=0;" edge="1" parent="1" target="h4NLX7vuD1O3hU5bMPrj-27" source="h4NLX7vuD1O3hU5bMPrj-11">
          <mxGeometry x="0.0082" y="20" relative="1" as="geometry">
            <mxPoint x="660" y="585" as="sourcePoint" />
            <mxPoint x="660" y="725" as="targetPoint" />
            <mxPoint y="-1" as="offset" />
          </mxGeometry>
        </mxCell>
        <mxCell id="h4NLX7vuD1O3hU5bMPrj-30" value="" style="rhombus;whiteSpace=wrap;html=1;" vertex="1" parent="1">
          <mxGeometry x="840" y="630" width="20" height="10" as="geometry" />
        </mxCell>
        <mxCell id="h4NLX7vuD1O3hU5bMPrj-31" value="" style="endArrow=open;html=1;endSize=12;startArrow=none;startSize=14;startFill=0;align=center;verticalAlign=bottom;endFill=0;rounded=0;exitX=0;exitY=0.5;exitDx=0;exitDy=0;entryX=1;entryY=0.5;entryDx=0;entryDy=0;" edge="1" parent="1" source="h4NLX7vuD1O3hU5bMPrj-30" target="h4NLX7vuD1O3hU5bMPrj-27">
          <mxGeometry y="3" relative="1" as="geometry">
            <mxPoint x="650" y="694.5" as="sourcePoint" />
            <mxPoint x="680" y="700" as="targetPoint" />
          </mxGeometry>
        </mxCell>
        <mxCell id="h4NLX7vuD1O3hU5bMPrj-32" value="[error]" style="endArrow=open;html=1;endSize=12;startArrow=none;startSize=14;startFill=0;align=center;verticalAlign=bottom;endFill=0;rounded=0;entryX=0.5;entryY=0;entryDx=0;entryDy=0;exitX=0.5;exitY=1;exitDx=0;exitDy=0;" edge="1" parent="1" target="h4NLX7vuD1O3hU5bMPrj-30" source="h4NLX7vuD1O3hU5bMPrj-12">
          <mxGeometry x="0.0082" y="20" relative="1" as="geometry">
            <mxPoint x="850" y="610" as="sourcePoint" />
            <mxPoint x="850" y="750" as="targetPoint" />
            <mxPoint y="-1" as="offset" />
          </mxGeometry>
        </mxCell>
        <mxCell id="h4NLX7vuD1O3hU5bMPrj-34" value="" style="html=1;align=center;verticalAlign=middle;rounded=1;absoluteArcSize=1;arcSize=10;dashed=1;whiteSpace=wrap;" vertex="1" parent="1">
          <mxGeometry x="200" y="740" width="990" height="190" as="geometry" />
        </mxCell>
        <mxCell id="h4NLX7vuD1O3hU5bMPrj-35" value="&lt;b&gt;Sign up&lt;/b&gt;" style="rounded=1;whiteSpace=wrap;html=1;fillColor=#fff2cc;strokeColor=#d6b656;opacity=80;" vertex="1" parent="1">
          <mxGeometry x="250" y="795" width="120" height="60" as="geometry" />
        </mxCell>
        <mxCell id="h4NLX7vuD1O3hU5bMPrj-36" value="" style="endArrow=open;html=1;endSize=12;startArrow=none;startSize=14;startFill=0;edgeStyle=orthogonalEdgeStyle;align=center;verticalAlign=bottom;endFill=0;rounded=0;exitX=1;exitY=0.5;exitDx=0;exitDy=0;entryX=0;entryY=0.5;entryDx=0;entryDy=0;" edge="1" parent="1" source="h4NLX7vuD1O3hU5bMPrj-38" target="h4NLX7vuD1O3hU5bMPrj-35">
          <mxGeometry y="3" relative="1" as="geometry">
            <mxPoint x="520" y="710" as="sourcePoint" />
            <mxPoint x="680" y="710" as="targetPoint" />
          </mxGeometry>
        </mxCell>
        <mxCell id="h4NLX7vuD1O3hU5bMPrj-37" value="&quot;Sign up&quot;" style="endArrow=open;html=1;endSize=12;startArrow=none;startSize=14;startFill=0;edgeStyle=orthogonalEdgeStyle;align=center;verticalAlign=bottom;endFill=0;rounded=0;exitX=1;exitY=0.5;exitDx=0;exitDy=0;entryX=0;entryY=0.5;entryDx=0;entryDy=0;" edge="1" parent="1" source="h4NLX7vuD1O3hU5bMPrj-35" target="h4NLX7vuD1O3hU5bMPrj-40">
          <mxGeometry y="3" relative="1" as="geometry">
            <mxPoint x="515" y="690" as="sourcePoint" />
            <mxPoint x="500" y="825" as="targetPoint" />
          </mxGeometry>
        </mxCell>
        <mxCell id="h4NLX7vuD1O3hU5bMPrj-38" value="" style="ellipse;" vertex="1" parent="1">
          <mxGeometry x="180" y="810" width="30" height="30" as="geometry" />
        </mxCell>
        <mxCell id="h4NLX7vuD1O3hU5bMPrj-39" value="" style="shape=sumEllipse;perimeter=ellipsePerimeter;html=1;backgroundOutline=1;" vertex="1" parent="1">
          <mxGeometry x="1180" y="810" width="30" height="30" as="geometry" />
        </mxCell>
        <mxCell id="h4NLX7vuD1O3hU5bMPrj-40" value="Data validation&lt;br&gt;&amp;nbsp;on frontend" style="rounded=1;whiteSpace=wrap;html=1;" vertex="1" parent="1">
          <mxGeometry x="430" y="795" width="120" height="60" as="geometry" />
        </mxCell>
        <mxCell id="h4NLX7vuD1O3hU5bMPrj-41" value="Data validation&lt;br&gt;on backend" style="rounded=1;whiteSpace=wrap;html=1;" vertex="1" parent="1">
          <mxGeometry x="610" y="795" width="120" height="60" as="geometry" />
        </mxCell>
        <mxCell id="h4NLX7vuD1O3hU5bMPrj-42" value="Check email doesn&#39;t exist" style="rounded=1;whiteSpace=wrap;html=1;" vertex="1" parent="1">
          <mxGeometry x="790" y="795" width="120" height="60" as="geometry" />
        </mxCell>
        <mxCell id="h4NLX7vuD1O3hU5bMPrj-43" value="[ok]" style="endArrow=open;html=1;endSize=12;startArrow=none;startSize=14;startFill=0;align=center;verticalAlign=bottom;endFill=0;rounded=0;exitX=1;exitY=0.5;exitDx=0;exitDy=0;entryX=0;entryY=0.5;entryDx=0;entryDy=0;" edge="1" parent="1" source="h4NLX7vuD1O3hU5bMPrj-40" target="h4NLX7vuD1O3hU5bMPrj-41">
          <mxGeometry y="3" relative="1" as="geometry">
            <mxPoint x="340" y="584.5" as="sourcePoint" />
            <mxPoint x="540" y="585" as="targetPoint" />
          </mxGeometry>
        </mxCell>
        <mxCell id="h4NLX7vuD1O3hU5bMPrj-44" value="[ok]" style="endArrow=open;html=1;endSize=12;startArrow=none;startSize=14;startFill=0;align=center;verticalAlign=bottom;endFill=0;rounded=0;exitX=1;exitY=0.5;exitDx=0;exitDy=0;entryX=0;entryY=0.5;entryDx=0;entryDy=0;" edge="1" parent="1" source="h4NLX7vuD1O3hU5bMPrj-41" target="h4NLX7vuD1O3hU5bMPrj-42">
          <mxGeometry y="3" relative="1" as="geometry">
            <mxPoint x="560" y="835" as="sourcePoint" />
            <mxPoint x="620" y="835" as="targetPoint" />
          </mxGeometry>
        </mxCell>
        <mxCell id="h4NLX7vuD1O3hU5bMPrj-45" value="[ok]" style="endArrow=open;html=1;endSize=12;startArrow=none;startSize=14;startFill=0;align=center;verticalAlign=bottom;endFill=0;rounded=0;exitX=1;exitY=0.5;exitDx=0;exitDy=0;entryX=0;entryY=0.5;entryDx=0;entryDy=0;" edge="1" parent="1" source="h4NLX7vuD1O3hU5bMPrj-42" target="h4NLX7vuD1O3hU5bMPrj-55">
          <mxGeometry y="3" relative="1" as="geometry">
            <mxPoint x="740" y="835" as="sourcePoint" />
            <mxPoint x="800" y="835" as="targetPoint" />
          </mxGeometry>
        </mxCell>
        <mxCell id="h4NLX7vuD1O3hU5bMPrj-46" value="" style="rhombus;whiteSpace=wrap;html=1;" vertex="1" parent="1">
          <mxGeometry x="480" y="900" width="20" height="10" as="geometry" />
        </mxCell>
        <mxCell id="h4NLX7vuD1O3hU5bMPrj-47" value="" style="endArrow=open;html=1;endSize=12;startArrow=none;startSize=14;startFill=0;align=center;verticalAlign=bottom;endFill=0;rounded=0;exitX=0;exitY=0.5;exitDx=0;exitDy=0;entryX=0.5;entryY=1;entryDx=0;entryDy=0;edgeStyle=orthogonalEdgeStyle;" edge="1" parent="1" source="h4NLX7vuD1O3hU5bMPrj-46" target="h4NLX7vuD1O3hU5bMPrj-35">
          <mxGeometry y="3" relative="1" as="geometry">
            <mxPoint x="290" y="954.5" as="sourcePoint" />
            <mxPoint x="400" y="945" as="targetPoint" />
          </mxGeometry>
        </mxCell>
        <mxCell id="h4NLX7vuD1O3hU5bMPrj-48" value="[error]" style="endArrow=open;html=1;endSize=12;startArrow=none;startSize=14;startFill=0;align=center;verticalAlign=bottom;endFill=0;rounded=0;entryX=0.5;entryY=0;entryDx=0;entryDy=0;exitX=0.5;exitY=1;exitDx=0;exitDy=0;" edge="1" parent="1" source="h4NLX7vuD1O3hU5bMPrj-40" target="h4NLX7vuD1O3hU5bMPrj-46">
          <mxGeometry x="0.0082" y="20" relative="1" as="geometry">
            <mxPoint x="490" y="870" as="sourcePoint" />
            <mxPoint x="490" y="1010" as="targetPoint" />
            <mxPoint y="-1" as="offset" />
          </mxGeometry>
        </mxCell>
        <mxCell id="h4NLX7vuD1O3hU5bMPrj-49" value="" style="rhombus;whiteSpace=wrap;html=1;" vertex="1" parent="1">
          <mxGeometry x="659" y="899" width="20" height="10" as="geometry" />
        </mxCell>
        <mxCell id="h4NLX7vuD1O3hU5bMPrj-50" value="" style="endArrow=open;html=1;endSize=12;startArrow=none;startSize=14;startFill=0;align=center;verticalAlign=bottom;endFill=0;rounded=0;exitX=0;exitY=0.5;exitDx=0;exitDy=0;entryX=1;entryY=0.5;entryDx=0;entryDy=0;" edge="1" parent="1" source="h4NLX7vuD1O3hU5bMPrj-49" target="h4NLX7vuD1O3hU5bMPrj-46">
          <mxGeometry y="3" relative="1" as="geometry">
            <mxPoint x="460" y="939.5" as="sourcePoint" />
            <mxPoint x="570" y="930" as="targetPoint" />
          </mxGeometry>
        </mxCell>
        <mxCell id="h4NLX7vuD1O3hU5bMPrj-51" value="[error]" style="endArrow=open;html=1;endSize=12;startArrow=none;startSize=14;startFill=0;align=center;verticalAlign=bottom;endFill=0;rounded=0;entryX=0.5;entryY=0;entryDx=0;entryDy=0;exitX=0.5;exitY=1;exitDx=0;exitDy=0;" edge="1" parent="1" source="h4NLX7vuD1O3hU5bMPrj-41" target="h4NLX7vuD1O3hU5bMPrj-49">
          <mxGeometry x="0.0082" y="20" relative="1" as="geometry">
            <mxPoint x="660" y="855" as="sourcePoint" />
            <mxPoint x="660" y="995" as="targetPoint" />
            <mxPoint y="-1" as="offset" />
          </mxGeometry>
        </mxCell>
        <mxCell id="h4NLX7vuD1O3hU5bMPrj-52" value="" style="rhombus;whiteSpace=wrap;html=1;" vertex="1" parent="1">
          <mxGeometry x="840" y="900" width="20" height="10" as="geometry" />
        </mxCell>
        <mxCell id="h4NLX7vuD1O3hU5bMPrj-53" value="" style="endArrow=open;html=1;endSize=12;startArrow=none;startSize=14;startFill=0;align=center;verticalAlign=bottom;endFill=0;rounded=0;exitX=0;exitY=0.5;exitDx=0;exitDy=0;entryX=1;entryY=0.5;entryDx=0;entryDy=0;" edge="1" parent="1" source="h4NLX7vuD1O3hU5bMPrj-52" target="h4NLX7vuD1O3hU5bMPrj-49">
          <mxGeometry y="3" relative="1" as="geometry">
            <mxPoint x="650" y="964.5" as="sourcePoint" />
            <mxPoint x="680" y="970" as="targetPoint" />
          </mxGeometry>
        </mxCell>
        <mxCell id="h4NLX7vuD1O3hU5bMPrj-54" value="[error]" style="endArrow=open;html=1;endSize=12;startArrow=none;startSize=14;startFill=0;align=center;verticalAlign=bottom;endFill=0;rounded=0;entryX=0.5;entryY=0;entryDx=0;entryDy=0;exitX=0.5;exitY=1;exitDx=0;exitDy=0;" edge="1" parent="1" source="h4NLX7vuD1O3hU5bMPrj-42" target="h4NLX7vuD1O3hU5bMPrj-52">
          <mxGeometry x="0.0082" y="20" relative="1" as="geometry">
            <mxPoint x="850" y="880" as="sourcePoint" />
            <mxPoint x="850" y="1020" as="targetPoint" />
            <mxPoint y="-1" as="offset" />
          </mxGeometry>
        </mxCell>
        <mxCell id="h4NLX7vuD1O3hU5bMPrj-55" value="Create new user" style="rounded=1;whiteSpace=wrap;html=1;" vertex="1" parent="1">
          <mxGeometry x="980" y="795" width="120" height="60" as="geometry" />
        </mxCell>
        <mxCell id="h4NLX7vuD1O3hU5bMPrj-57" value="" style="rhombus;whiteSpace=wrap;html=1;" vertex="1" parent="1">
          <mxGeometry x="1030" y="900" width="20" height="10" as="geometry" />
        </mxCell>
        <mxCell id="h4NLX7vuD1O3hU5bMPrj-58" value="" style="endArrow=open;html=1;endSize=12;startArrow=none;startSize=14;startFill=0;align=center;verticalAlign=bottom;endFill=0;rounded=0;exitX=0;exitY=0.5;exitDx=0;exitDy=0;entryX=1;entryY=0.5;entryDx=0;entryDy=0;" edge="1" parent="1" source="h4NLX7vuD1O3hU5bMPrj-57" target="h4NLX7vuD1O3hU5bMPrj-52">
          <mxGeometry y="3" relative="1" as="geometry">
            <mxPoint x="861" y="964.5" as="sourcePoint" />
            <mxPoint x="890" y="904" as="targetPoint" />
          </mxGeometry>
        </mxCell>
        <mxCell id="h4NLX7vuD1O3hU5bMPrj-59" value="[error]" style="endArrow=open;html=1;endSize=12;startArrow=none;startSize=14;startFill=0;align=center;verticalAlign=bottom;endFill=0;rounded=0;entryX=0.5;entryY=0;entryDx=0;entryDy=0;exitX=0.5;exitY=1;exitDx=0;exitDy=0;" edge="1" parent="1" source="h4NLX7vuD1O3hU5bMPrj-55" target="h4NLX7vuD1O3hU5bMPrj-57">
          <mxGeometry x="0.0082" y="20" relative="1" as="geometry">
            <mxPoint x="1061" y="880" as="sourcePoint" />
            <mxPoint x="1061" y="1020" as="targetPoint" />
            <mxPoint y="-1" as="offset" />
          </mxGeometry>
        </mxCell>
        <mxCell id="h4NLX7vuD1O3hU5bMPrj-62" value="" style="html=1;align=center;verticalAlign=middle;rounded=1;absoluteArcSize=1;arcSize=10;dashed=1;whiteSpace=wrap;" vertex="1" parent="1">
          <mxGeometry x="200" y="1010" width="990" height="190" as="geometry" />
        </mxCell>
        <mxCell id="h4NLX7vuD1O3hU5bMPrj-63" value="&lt;b&gt;Change password&lt;/b&gt;" style="rounded=1;whiteSpace=wrap;html=1;fillColor=#fff2cc;strokeColor=#d6b656;opacity=80;" vertex="1" parent="1">
          <mxGeometry x="250" y="1065" width="120" height="60" as="geometry" />
        </mxCell>
        <mxCell id="h4NLX7vuD1O3hU5bMPrj-64" value="" style="endArrow=open;html=1;endSize=12;startArrow=none;startSize=14;startFill=0;edgeStyle=orthogonalEdgeStyle;align=center;verticalAlign=bottom;endFill=0;rounded=0;exitX=1;exitY=0.5;exitDx=0;exitDy=0;entryX=0;entryY=0.5;entryDx=0;entryDy=0;" edge="1" parent="1" source="h4NLX7vuD1O3hU5bMPrj-66" target="h4NLX7vuD1O3hU5bMPrj-63">
          <mxGeometry y="3" relative="1" as="geometry">
            <mxPoint x="520" y="980" as="sourcePoint" />
            <mxPoint x="680" y="980" as="targetPoint" />
          </mxGeometry>
        </mxCell>
        <mxCell id="h4NLX7vuD1O3hU5bMPrj-65" value="&quot;Change &lt;br&gt;password&quot;" style="endArrow=open;html=1;endSize=12;startArrow=none;startSize=14;startFill=0;edgeStyle=orthogonalEdgeStyle;align=center;verticalAlign=bottom;endFill=0;rounded=0;exitX=1;exitY=0.5;exitDx=0;exitDy=0;entryX=0;entryY=0.5;entryDx=0;entryDy=0;" edge="1" parent="1" source="h4NLX7vuD1O3hU5bMPrj-63" target="h4NLX7vuD1O3hU5bMPrj-68">
          <mxGeometry y="3" relative="1" as="geometry">
            <mxPoint x="515" y="960" as="sourcePoint" />
            <mxPoint x="500" y="1095" as="targetPoint" />
          </mxGeometry>
        </mxCell>
        <mxCell id="h4NLX7vuD1O3hU5bMPrj-66" value="" style="ellipse;" vertex="1" parent="1">
          <mxGeometry x="180" y="1080" width="30" height="30" as="geometry" />
        </mxCell>
        <mxCell id="h4NLX7vuD1O3hU5bMPrj-67" value="" style="shape=sumEllipse;perimeter=ellipsePerimeter;html=1;backgroundOutline=1;" vertex="1" parent="1">
          <mxGeometry x="1180" y="1080" width="30" height="30" as="geometry" />
        </mxCell>
        <mxCell id="h4NLX7vuD1O3hU5bMPrj-68" value="Data validation&lt;br&gt;&amp;nbsp;on frontend" style="rounded=1;whiteSpace=wrap;html=1;" vertex="1" parent="1">
          <mxGeometry x="430" y="1065" width="120" height="60" as="geometry" />
        </mxCell>
        <mxCell id="h4NLX7vuD1O3hU5bMPrj-69" value="Data validation&lt;br&gt;on backend" style="rounded=1;whiteSpace=wrap;html=1;" vertex="1" parent="1">
          <mxGeometry x="610" y="1065" width="120" height="60" as="geometry" />
        </mxCell>
        <mxCell id="h4NLX7vuD1O3hU5bMPrj-70" value="Check recovery token" style="rounded=1;whiteSpace=wrap;html=1;" vertex="1" parent="1">
          <mxGeometry x="790" y="1065" width="120" height="60" as="geometry" />
        </mxCell>
        <mxCell id="h4NLX7vuD1O3hU5bMPrj-71" value="[ok]" style="endArrow=open;html=1;endSize=12;startArrow=none;startSize=14;startFill=0;align=center;verticalAlign=bottom;endFill=0;rounded=0;exitX=1;exitY=0.5;exitDx=0;exitDy=0;entryX=0;entryY=0.5;entryDx=0;entryDy=0;" edge="1" parent="1" source="h4NLX7vuD1O3hU5bMPrj-68" target="h4NLX7vuD1O3hU5bMPrj-69">
          <mxGeometry y="3" relative="1" as="geometry">
            <mxPoint x="340" y="854.5" as="sourcePoint" />
            <mxPoint x="540" y="855" as="targetPoint" />
          </mxGeometry>
        </mxCell>
        <mxCell id="h4NLX7vuD1O3hU5bMPrj-72" value="[ok]" style="endArrow=open;html=1;endSize=12;startArrow=none;startSize=14;startFill=0;align=center;verticalAlign=bottom;endFill=0;rounded=0;exitX=1;exitY=0.5;exitDx=0;exitDy=0;entryX=0;entryY=0.5;entryDx=0;entryDy=0;" edge="1" parent="1" source="h4NLX7vuD1O3hU5bMPrj-69" target="h4NLX7vuD1O3hU5bMPrj-70">
          <mxGeometry y="3" relative="1" as="geometry">
            <mxPoint x="560" y="1105" as="sourcePoint" />
            <mxPoint x="620" y="1105" as="targetPoint" />
          </mxGeometry>
        </mxCell>
        <mxCell id="h4NLX7vuD1O3hU5bMPrj-73" value="[ok]" style="endArrow=open;html=1;endSize=12;startArrow=none;startSize=14;startFill=0;align=center;verticalAlign=bottom;endFill=0;rounded=0;exitX=1;exitY=0.5;exitDx=0;exitDy=0;entryX=0;entryY=0.5;entryDx=0;entryDy=0;" edge="1" parent="1" source="h4NLX7vuD1O3hU5bMPrj-70" target="h4NLX7vuD1O3hU5bMPrj-83">
          <mxGeometry y="3" relative="1" as="geometry">
            <mxPoint x="740" y="1105" as="sourcePoint" />
            <mxPoint x="800" y="1105" as="targetPoint" />
          </mxGeometry>
        </mxCell>
        <mxCell id="h4NLX7vuD1O3hU5bMPrj-74" value="" style="rhombus;whiteSpace=wrap;html=1;" vertex="1" parent="1">
          <mxGeometry x="480" y="1170" width="20" height="10" as="geometry" />
        </mxCell>
        <mxCell id="h4NLX7vuD1O3hU5bMPrj-75" value="" style="endArrow=open;html=1;endSize=12;startArrow=none;startSize=14;startFill=0;align=center;verticalAlign=bottom;endFill=0;rounded=0;exitX=0;exitY=0.5;exitDx=0;exitDy=0;entryX=0.5;entryY=1;entryDx=0;entryDy=0;edgeStyle=orthogonalEdgeStyle;" edge="1" parent="1" source="h4NLX7vuD1O3hU5bMPrj-74" target="h4NLX7vuD1O3hU5bMPrj-63">
          <mxGeometry y="3" relative="1" as="geometry">
            <mxPoint x="290" y="1224.5" as="sourcePoint" />
            <mxPoint x="400" y="1215" as="targetPoint" />
          </mxGeometry>
        </mxCell>
        <mxCell id="h4NLX7vuD1O3hU5bMPrj-76" value="[error]" style="endArrow=open;html=1;endSize=12;startArrow=none;startSize=14;startFill=0;align=center;verticalAlign=bottom;endFill=0;rounded=0;entryX=0.5;entryY=0;entryDx=0;entryDy=0;exitX=0.5;exitY=1;exitDx=0;exitDy=0;" edge="1" parent="1" source="h4NLX7vuD1O3hU5bMPrj-68" target="h4NLX7vuD1O3hU5bMPrj-74">
          <mxGeometry x="0.0082" y="20" relative="1" as="geometry">
            <mxPoint x="490" y="1140" as="sourcePoint" />
            <mxPoint x="490" y="1280" as="targetPoint" />
            <mxPoint y="-1" as="offset" />
          </mxGeometry>
        </mxCell>
        <mxCell id="h4NLX7vuD1O3hU5bMPrj-77" value="" style="rhombus;whiteSpace=wrap;html=1;" vertex="1" parent="1">
          <mxGeometry x="659" y="1169" width="20" height="10" as="geometry" />
        </mxCell>
        <mxCell id="h4NLX7vuD1O3hU5bMPrj-78" value="" style="endArrow=open;html=1;endSize=12;startArrow=none;startSize=14;startFill=0;align=center;verticalAlign=bottom;endFill=0;rounded=0;exitX=0;exitY=0.5;exitDx=0;exitDy=0;entryX=1;entryY=0.5;entryDx=0;entryDy=0;" edge="1" parent="1" source="h4NLX7vuD1O3hU5bMPrj-77" target="h4NLX7vuD1O3hU5bMPrj-74">
          <mxGeometry y="3" relative="1" as="geometry">
            <mxPoint x="460" y="1209.5" as="sourcePoint" />
            <mxPoint x="570" y="1200" as="targetPoint" />
          </mxGeometry>
        </mxCell>
        <mxCell id="h4NLX7vuD1O3hU5bMPrj-79" value="[error]" style="endArrow=open;html=1;endSize=12;startArrow=none;startSize=14;startFill=0;align=center;verticalAlign=bottom;endFill=0;rounded=0;entryX=0.5;entryY=0;entryDx=0;entryDy=0;exitX=0.5;exitY=1;exitDx=0;exitDy=0;" edge="1" parent="1" source="h4NLX7vuD1O3hU5bMPrj-69" target="h4NLX7vuD1O3hU5bMPrj-77">
          <mxGeometry x="0.0082" y="20" relative="1" as="geometry">
            <mxPoint x="660" y="1125" as="sourcePoint" />
            <mxPoint x="660" y="1265" as="targetPoint" />
            <mxPoint y="-1" as="offset" />
          </mxGeometry>
        </mxCell>
        <mxCell id="h4NLX7vuD1O3hU5bMPrj-80" value="" style="rhombus;whiteSpace=wrap;html=1;" vertex="1" parent="1">
          <mxGeometry x="840" y="1170" width="20" height="10" as="geometry" />
        </mxCell>
        <mxCell id="h4NLX7vuD1O3hU5bMPrj-81" value="" style="endArrow=open;html=1;endSize=12;startArrow=none;startSize=14;startFill=0;align=center;verticalAlign=bottom;endFill=0;rounded=0;exitX=0;exitY=0.5;exitDx=0;exitDy=0;entryX=1;entryY=0.5;entryDx=0;entryDy=0;" edge="1" parent="1" source="h4NLX7vuD1O3hU5bMPrj-80" target="h4NLX7vuD1O3hU5bMPrj-77">
          <mxGeometry y="3" relative="1" as="geometry">
            <mxPoint x="650" y="1234.5" as="sourcePoint" />
            <mxPoint x="680" y="1240" as="targetPoint" />
          </mxGeometry>
        </mxCell>
        <mxCell id="h4NLX7vuD1O3hU5bMPrj-82" value="[error]" style="endArrow=open;html=1;endSize=12;startArrow=none;startSize=14;startFill=0;align=center;verticalAlign=bottom;endFill=0;rounded=0;entryX=0.5;entryY=0;entryDx=0;entryDy=0;exitX=0.5;exitY=1;exitDx=0;exitDy=0;" edge="1" parent="1" source="h4NLX7vuD1O3hU5bMPrj-70" target="h4NLX7vuD1O3hU5bMPrj-80">
          <mxGeometry x="0.0082" y="20" relative="1" as="geometry">
            <mxPoint x="850" y="1150" as="sourcePoint" />
            <mxPoint x="850" y="1290" as="targetPoint" />
            <mxPoint y="-1" as="offset" />
          </mxGeometry>
        </mxCell>
        <mxCell id="h4NLX7vuD1O3hU5bMPrj-83" value="Remove recovery token &amp;amp; change password" style="rounded=1;whiteSpace=wrap;html=1;" vertex="1" parent="1">
          <mxGeometry x="980" y="1065" width="120" height="60" as="geometry" />
        </mxCell>
        <mxCell id="h4NLX7vuD1O3hU5bMPrj-84" value="" style="rhombus;whiteSpace=wrap;html=1;" vertex="1" parent="1">
          <mxGeometry x="1030" y="1170" width="20" height="10" as="geometry" />
        </mxCell>
        <mxCell id="h4NLX7vuD1O3hU5bMPrj-85" value="" style="endArrow=open;html=1;endSize=12;startArrow=none;startSize=14;startFill=0;align=center;verticalAlign=bottom;endFill=0;rounded=0;exitX=0;exitY=0.5;exitDx=0;exitDy=0;entryX=1;entryY=0.5;entryDx=0;entryDy=0;" edge="1" parent="1" source="h4NLX7vuD1O3hU5bMPrj-84" target="h4NLX7vuD1O3hU5bMPrj-80">
          <mxGeometry y="3" relative="1" as="geometry">
            <mxPoint x="861" y="1234.5" as="sourcePoint" />
            <mxPoint x="890" y="1174" as="targetPoint" />
          </mxGeometry>
        </mxCell>
        <mxCell id="h4NLX7vuD1O3hU5bMPrj-86" value="[error]" style="endArrow=open;html=1;endSize=12;startArrow=none;startSize=14;startFill=0;align=center;verticalAlign=bottom;endFill=0;rounded=0;entryX=0.5;entryY=0;entryDx=0;entryDy=0;exitX=0.5;exitY=1;exitDx=0;exitDy=0;" edge="1" parent="1" source="h4NLX7vuD1O3hU5bMPrj-83" target="h4NLX7vuD1O3hU5bMPrj-84">
          <mxGeometry x="0.0082" y="20" relative="1" as="geometry">
            <mxPoint x="1061" y="1150" as="sourcePoint" />
            <mxPoint x="1061" y="1290" as="targetPoint" />
            <mxPoint y="-1" as="offset" />
          </mxGeometry>
        </mxCell>
        <mxCell id="h4NLX7vuD1O3hU5bMPrj-87" value="[ok]" style="endArrow=open;html=1;endSize=12;startArrow=none;startSize=14;startFill=0;align=center;verticalAlign=bottom;endFill=0;rounded=0;exitX=1;exitY=0.5;exitDx=0;exitDy=0;entryX=0;entryY=0.5;entryDx=0;entryDy=0;" edge="1" parent="1" source="h4NLX7vuD1O3hU5bMPrj-83" target="h4NLX7vuD1O3hU5bMPrj-67">
          <mxGeometry y="3" relative="1" as="geometry">
            <mxPoint x="920" y="1105" as="sourcePoint" />
            <mxPoint x="1081" y="1105" as="targetPoint" />
          </mxGeometry>
        </mxCell>
        <mxCell id="h4NLX7vuD1O3hU5bMPrj-88" value="" style="html=1;align=center;verticalAlign=middle;rounded=1;absoluteArcSize=1;arcSize=10;dashed=1;whiteSpace=wrap;" vertex="1" parent="1">
          <mxGeometry x="200" y="1260" width="1190" height="190" as="geometry" />
        </mxCell>
        <mxCell id="h4NLX7vuD1O3hU5bMPrj-89" value="&lt;b&gt;Restore password&lt;/b&gt;" style="rounded=1;whiteSpace=wrap;html=1;fillColor=#fff2cc;strokeColor=#d6b656;opacity=80;" vertex="1" parent="1">
          <mxGeometry x="250" y="1315" width="120" height="60" as="geometry" />
        </mxCell>
        <mxCell id="h4NLX7vuD1O3hU5bMPrj-90" value="" style="endArrow=open;html=1;endSize=12;startArrow=none;startSize=14;startFill=0;edgeStyle=orthogonalEdgeStyle;align=center;verticalAlign=bottom;endFill=0;rounded=0;exitX=1;exitY=0.5;exitDx=0;exitDy=0;entryX=0;entryY=0.5;entryDx=0;entryDy=0;" edge="1" parent="1" source="h4NLX7vuD1O3hU5bMPrj-92" target="h4NLX7vuD1O3hU5bMPrj-89">
          <mxGeometry y="3" relative="1" as="geometry">
            <mxPoint x="520" y="1230" as="sourcePoint" />
            <mxPoint x="680" y="1230" as="targetPoint" />
          </mxGeometry>
        </mxCell>
        <mxCell id="h4NLX7vuD1O3hU5bMPrj-91" value="&quot;Restore&lt;br&gt;password&quot;" style="endArrow=open;html=1;endSize=12;startArrow=none;startSize=14;startFill=0;edgeStyle=orthogonalEdgeStyle;align=center;verticalAlign=bottom;endFill=0;rounded=0;exitX=1;exitY=0.5;exitDx=0;exitDy=0;entryX=0;entryY=0.5;entryDx=0;entryDy=0;" edge="1" parent="1" source="h4NLX7vuD1O3hU5bMPrj-89" target="h4NLX7vuD1O3hU5bMPrj-94">
          <mxGeometry y="3" relative="1" as="geometry">
            <mxPoint x="515" y="1210" as="sourcePoint" />
            <mxPoint x="500" y="1345" as="targetPoint" />
          </mxGeometry>
        </mxCell>
        <mxCell id="h4NLX7vuD1O3hU5bMPrj-92" value="" style="ellipse;" vertex="1" parent="1">
          <mxGeometry x="180" y="1330" width="30" height="30" as="geometry" />
        </mxCell>
        <mxCell id="h4NLX7vuD1O3hU5bMPrj-93" value="" style="shape=sumEllipse;perimeter=ellipsePerimeter;html=1;backgroundOutline=1;" vertex="1" parent="1">
          <mxGeometry x="1380" y="1330" width="30" height="30" as="geometry" />
        </mxCell>
        <mxCell id="h4NLX7vuD1O3hU5bMPrj-94" value="Data validation&lt;br&gt;&amp;nbsp;on frontend" style="rounded=1;whiteSpace=wrap;html=1;" vertex="1" parent="1">
          <mxGeometry x="430" y="1315" width="120" height="60" as="geometry" />
        </mxCell>
        <mxCell id="h4NLX7vuD1O3hU5bMPrj-95" value="Data validation&lt;br&gt;on backend" style="rounded=1;whiteSpace=wrap;html=1;" vertex="1" parent="1">
          <mxGeometry x="610" y="1315" width="120" height="60" as="geometry" />
        </mxCell>
        <mxCell id="h4NLX7vuD1O3hU5bMPrj-96" value="Check email exists" style="rounded=1;whiteSpace=wrap;html=1;" vertex="1" parent="1">
          <mxGeometry x="790" y="1315" width="120" height="60" as="geometry" />
        </mxCell>
        <mxCell id="h4NLX7vuD1O3hU5bMPrj-97" value="[ok]" style="endArrow=open;html=1;endSize=12;startArrow=none;startSize=14;startFill=0;align=center;verticalAlign=bottom;endFill=0;rounded=0;exitX=1;exitY=0.5;exitDx=0;exitDy=0;entryX=0;entryY=0.5;entryDx=0;entryDy=0;" edge="1" parent="1" source="h4NLX7vuD1O3hU5bMPrj-94" target="h4NLX7vuD1O3hU5bMPrj-95">
          <mxGeometry y="3" relative="1" as="geometry">
            <mxPoint x="340" y="1104.5" as="sourcePoint" />
            <mxPoint x="540" y="1105" as="targetPoint" />
          </mxGeometry>
        </mxCell>
        <mxCell id="h4NLX7vuD1O3hU5bMPrj-98" value="[ok]" style="endArrow=open;html=1;endSize=12;startArrow=none;startSize=14;startFill=0;align=center;verticalAlign=bottom;endFill=0;rounded=0;exitX=1;exitY=0.5;exitDx=0;exitDy=0;entryX=0;entryY=0.5;entryDx=0;entryDy=0;" edge="1" parent="1" source="h4NLX7vuD1O3hU5bMPrj-95" target="h4NLX7vuD1O3hU5bMPrj-96">
          <mxGeometry y="3" relative="1" as="geometry">
            <mxPoint x="560" y="1355" as="sourcePoint" />
            <mxPoint x="620" y="1355" as="targetPoint" />
          </mxGeometry>
        </mxCell>
        <mxCell id="h4NLX7vuD1O3hU5bMPrj-99" value="[ok]" style="endArrow=open;html=1;endSize=12;startArrow=none;startSize=14;startFill=0;align=center;verticalAlign=bottom;endFill=0;rounded=0;exitX=1;exitY=0.5;exitDx=0;exitDy=0;entryX=0;entryY=0.5;entryDx=0;entryDy=0;" edge="1" parent="1" source="h4NLX7vuD1O3hU5bMPrj-96" target="h4NLX7vuD1O3hU5bMPrj-109">
          <mxGeometry y="3" relative="1" as="geometry">
            <mxPoint x="740" y="1355" as="sourcePoint" />
            <mxPoint x="800" y="1355" as="targetPoint" />
          </mxGeometry>
        </mxCell>
        <mxCell id="h4NLX7vuD1O3hU5bMPrj-100" value="" style="rhombus;whiteSpace=wrap;html=1;" vertex="1" parent="1">
          <mxGeometry x="480" y="1420" width="20" height="10" as="geometry" />
        </mxCell>
        <mxCell id="h4NLX7vuD1O3hU5bMPrj-101" value="" style="endArrow=open;html=1;endSize=12;startArrow=none;startSize=14;startFill=0;align=center;verticalAlign=bottom;endFill=0;rounded=0;exitX=0;exitY=0.5;exitDx=0;exitDy=0;entryX=0.5;entryY=1;entryDx=0;entryDy=0;edgeStyle=orthogonalEdgeStyle;" edge="1" parent="1" source="h4NLX7vuD1O3hU5bMPrj-100" target="h4NLX7vuD1O3hU5bMPrj-89">
          <mxGeometry y="3" relative="1" as="geometry">
            <mxPoint x="290" y="1474.5" as="sourcePoint" />
            <mxPoint x="400" y="1465" as="targetPoint" />
          </mxGeometry>
        </mxCell>
        <mxCell id="h4NLX7vuD1O3hU5bMPrj-102" value="[error]" style="endArrow=open;html=1;endSize=12;startArrow=none;startSize=14;startFill=0;align=center;verticalAlign=bottom;endFill=0;rounded=0;entryX=0.5;entryY=0;entryDx=0;entryDy=0;exitX=0.5;exitY=1;exitDx=0;exitDy=0;" edge="1" parent="1" source="h4NLX7vuD1O3hU5bMPrj-94" target="h4NLX7vuD1O3hU5bMPrj-100">
          <mxGeometry x="0.0082" y="20" relative="1" as="geometry">
            <mxPoint x="490" y="1390" as="sourcePoint" />
            <mxPoint x="490" y="1530" as="targetPoint" />
            <mxPoint y="-1" as="offset" />
          </mxGeometry>
        </mxCell>
        <mxCell id="h4NLX7vuD1O3hU5bMPrj-103" value="" style="rhombus;whiteSpace=wrap;html=1;" vertex="1" parent="1">
          <mxGeometry x="659" y="1419" width="20" height="10" as="geometry" />
        </mxCell>
        <mxCell id="h4NLX7vuD1O3hU5bMPrj-104" value="" style="endArrow=open;html=1;endSize=12;startArrow=none;startSize=14;startFill=0;align=center;verticalAlign=bottom;endFill=0;rounded=0;exitX=0;exitY=0.5;exitDx=0;exitDy=0;entryX=1;entryY=0.5;entryDx=0;entryDy=0;" edge="1" parent="1" source="h4NLX7vuD1O3hU5bMPrj-103" target="h4NLX7vuD1O3hU5bMPrj-100">
          <mxGeometry y="3" relative="1" as="geometry">
            <mxPoint x="460" y="1459.5" as="sourcePoint" />
            <mxPoint x="570" y="1450" as="targetPoint" />
          </mxGeometry>
        </mxCell>
        <mxCell id="h4NLX7vuD1O3hU5bMPrj-105" value="[error]" style="endArrow=open;html=1;endSize=12;startArrow=none;startSize=14;startFill=0;align=center;verticalAlign=bottom;endFill=0;rounded=0;entryX=0.5;entryY=0;entryDx=0;entryDy=0;exitX=0.5;exitY=1;exitDx=0;exitDy=0;" edge="1" parent="1" source="h4NLX7vuD1O3hU5bMPrj-95" target="h4NLX7vuD1O3hU5bMPrj-103">
          <mxGeometry x="0.0082" y="20" relative="1" as="geometry">
            <mxPoint x="660" y="1375" as="sourcePoint" />
            <mxPoint x="660" y="1515" as="targetPoint" />
            <mxPoint y="-1" as="offset" />
          </mxGeometry>
        </mxCell>
        <mxCell id="h4NLX7vuD1O3hU5bMPrj-106" value="" style="rhombus;whiteSpace=wrap;html=1;" vertex="1" parent="1">
          <mxGeometry x="840" y="1420" width="20" height="10" as="geometry" />
        </mxCell>
        <mxCell id="h4NLX7vuD1O3hU5bMPrj-107" value="" style="endArrow=open;html=1;endSize=12;startArrow=none;startSize=14;startFill=0;align=center;verticalAlign=bottom;endFill=0;rounded=0;exitX=0;exitY=0.5;exitDx=0;exitDy=0;entryX=1;entryY=0.5;entryDx=0;entryDy=0;" edge="1" parent="1" source="h4NLX7vuD1O3hU5bMPrj-106" target="h4NLX7vuD1O3hU5bMPrj-103">
          <mxGeometry y="3" relative="1" as="geometry">
            <mxPoint x="650" y="1484.5" as="sourcePoint" />
            <mxPoint x="680" y="1490" as="targetPoint" />
          </mxGeometry>
        </mxCell>
        <mxCell id="h4NLX7vuD1O3hU5bMPrj-108" value="[error]" style="endArrow=open;html=1;endSize=12;startArrow=none;startSize=14;startFill=0;align=center;verticalAlign=bottom;endFill=0;rounded=0;entryX=0.5;entryY=0;entryDx=0;entryDy=0;exitX=0.5;exitY=1;exitDx=0;exitDy=0;" edge="1" parent="1" source="h4NLX7vuD1O3hU5bMPrj-96" target="h4NLX7vuD1O3hU5bMPrj-106">
          <mxGeometry x="0.0082" y="20" relative="1" as="geometry">
            <mxPoint x="850" y="1400" as="sourcePoint" />
            <mxPoint x="850" y="1540" as="targetPoint" />
            <mxPoint y="-1" as="offset" />
          </mxGeometry>
        </mxCell>
        <mxCell id="h4NLX7vuD1O3hU5bMPrj-109" value="Generate &amp;amp; store recovery token" style="rounded=1;whiteSpace=wrap;html=1;" vertex="1" parent="1">
          <mxGeometry x="980" y="1315" width="120" height="60" as="geometry" />
        </mxCell>
        <mxCell id="h4NLX7vuD1O3hU5bMPrj-110" value="" style="rhombus;whiteSpace=wrap;html=1;" vertex="1" parent="1">
          <mxGeometry x="1030" y="1420" width="20" height="10" as="geometry" />
        </mxCell>
        <mxCell id="h4NLX7vuD1O3hU5bMPrj-111" value="" style="endArrow=open;html=1;endSize=12;startArrow=none;startSize=14;startFill=0;align=center;verticalAlign=bottom;endFill=0;rounded=0;exitX=0;exitY=0.5;exitDx=0;exitDy=0;entryX=1;entryY=0.5;entryDx=0;entryDy=0;" edge="1" parent="1" source="h4NLX7vuD1O3hU5bMPrj-110" target="h4NLX7vuD1O3hU5bMPrj-106">
          <mxGeometry y="3" relative="1" as="geometry">
            <mxPoint x="861" y="1484.5" as="sourcePoint" />
            <mxPoint x="890" y="1424" as="targetPoint" />
          </mxGeometry>
        </mxCell>
        <mxCell id="h4NLX7vuD1O3hU5bMPrj-112" value="[error]" style="endArrow=open;html=1;endSize=12;startArrow=none;startSize=14;startFill=0;align=center;verticalAlign=bottom;endFill=0;rounded=0;entryX=0.5;entryY=0;entryDx=0;entryDy=0;exitX=0.5;exitY=1;exitDx=0;exitDy=0;" edge="1" parent="1" source="h4NLX7vuD1O3hU5bMPrj-109" target="h4NLX7vuD1O3hU5bMPrj-110">
          <mxGeometry x="0.0082" y="20" relative="1" as="geometry">
            <mxPoint x="1061" y="1400" as="sourcePoint" />
            <mxPoint x="1061" y="1540" as="targetPoint" />
            <mxPoint y="-1" as="offset" />
          </mxGeometry>
        </mxCell>
        <mxCell id="h4NLX7vuD1O3hU5bMPrj-114" value="[ok]" style="endArrow=open;html=1;endSize=12;startArrow=none;startSize=14;startFill=0;align=center;verticalAlign=bottom;endFill=0;rounded=0;entryX=0;entryY=0.5;entryDx=0;entryDy=0;exitX=1;exitY=0.5;exitDx=0;exitDy=0;" edge="1" parent="1" target="h4NLX7vuD1O3hU5bMPrj-115" source="h4NLX7vuD1O3hU5bMPrj-109">
          <mxGeometry y="3" relative="1" as="geometry">
            <mxPoint x="1080" y="1540" as="sourcePoint" />
            <mxPoint x="990" y="1355" as="targetPoint" />
          </mxGeometry>
        </mxCell>
        <mxCell id="h4NLX7vuD1O3hU5bMPrj-115" value="Send email with link to recover password" style="rounded=1;whiteSpace=wrap;html=1;" vertex="1" parent="1">
          <mxGeometry x="1170" y="1315" width="120" height="60" as="geometry" />
        </mxCell>
        <mxCell id="h4NLX7vuD1O3hU5bMPrj-116" value="" style="rhombus;whiteSpace=wrap;html=1;" vertex="1" parent="1">
          <mxGeometry x="1220" y="1420" width="20" height="10" as="geometry" />
        </mxCell>
        <mxCell id="h4NLX7vuD1O3hU5bMPrj-117" value="" style="endArrow=open;html=1;endSize=12;startArrow=none;startSize=14;startFill=0;align=center;verticalAlign=bottom;endFill=0;rounded=0;exitX=0;exitY=0.5;exitDx=0;exitDy=0;entryX=1;entryY=0.5;entryDx=0;entryDy=0;" edge="1" parent="1" source="h4NLX7vuD1O3hU5bMPrj-116" target="h4NLX7vuD1O3hU5bMPrj-110">
          <mxGeometry y="3" relative="1" as="geometry">
            <mxPoint x="1051" y="1484.5" as="sourcePoint" />
            <mxPoint x="1050" y="1425" as="targetPoint" />
          </mxGeometry>
        </mxCell>
        <mxCell id="h4NLX7vuD1O3hU5bMPrj-118" value="[error]" style="endArrow=open;html=1;endSize=12;startArrow=none;startSize=14;startFill=0;align=center;verticalAlign=bottom;endFill=0;rounded=0;entryX=0.5;entryY=0;entryDx=0;entryDy=0;exitX=0.5;exitY=1;exitDx=0;exitDy=0;" edge="1" parent="1" source="h4NLX7vuD1O3hU5bMPrj-115" target="h4NLX7vuD1O3hU5bMPrj-116">
          <mxGeometry x="0.0082" y="20" relative="1" as="geometry">
            <mxPoint x="1251" y="1400" as="sourcePoint" />
            <mxPoint x="1251" y="1540" as="targetPoint" />
            <mxPoint y="-1" as="offset" />
          </mxGeometry>
        </mxCell>
        <mxCell id="h4NLX7vuD1O3hU5bMPrj-119" value="[ok]" style="endArrow=open;html=1;endSize=12;startArrow=none;startSize=14;startFill=0;align=center;verticalAlign=bottom;endFill=0;rounded=0;entryX=0;entryY=0.5;entryDx=0;entryDy=0;exitX=1;exitY=0.5;exitDx=0;exitDy=0;" edge="1" parent="1" source="h4NLX7vuD1O3hU5bMPrj-115" target="h4NLX7vuD1O3hU5bMPrj-93">
          <mxGeometry y="3" relative="1" as="geometry">
            <mxPoint x="1110" y="1355" as="sourcePoint" />
            <mxPoint x="1180" y="1355" as="targetPoint" />
          </mxGeometry>
        </mxCell>
        <mxCell id="h4NLX7vuD1O3hU5bMPrj-145" value="Generate &amp;amp; store auth token" style="rounded=1;whiteSpace=wrap;html=1;" vertex="1" parent="1">
          <mxGeometry x="990" y="525" width="120" height="60" as="geometry" />
        </mxCell>
        <mxCell id="h4NLX7vuD1O3hU5bMPrj-146" value="" style="rhombus;whiteSpace=wrap;html=1;" vertex="1" parent="1">
          <mxGeometry x="1040" y="630" width="20" height="10" as="geometry" />
        </mxCell>
        <mxCell id="h4NLX7vuD1O3hU5bMPrj-147" value="" style="endArrow=open;html=1;endSize=12;startArrow=none;startSize=14;startFill=0;align=center;verticalAlign=bottom;endFill=0;rounded=0;exitX=0;exitY=0.5;exitDx=0;exitDy=0;entryX=1;entryY=0.5;entryDx=0;entryDy=0;" edge="1" parent="1" source="h4NLX7vuD1O3hU5bMPrj-146" target="h4NLX7vuD1O3hU5bMPrj-30">
          <mxGeometry y="3" relative="1" as="geometry">
            <mxPoint x="881" y="693.5" as="sourcePoint" />
            <mxPoint x="880" y="634" as="targetPoint" />
          </mxGeometry>
        </mxCell>
        <mxCell id="h4NLX7vuD1O3hU5bMPrj-148" value="[error]" style="endArrow=open;html=1;endSize=12;startArrow=none;startSize=14;startFill=0;align=center;verticalAlign=bottom;endFill=0;rounded=0;entryX=0.5;entryY=0;entryDx=0;entryDy=0;exitX=0.5;exitY=1;exitDx=0;exitDy=0;" edge="1" parent="1" source="h4NLX7vuD1O3hU5bMPrj-145" target="h4NLX7vuD1O3hU5bMPrj-146">
          <mxGeometry x="0.0082" y="20" relative="1" as="geometry">
            <mxPoint x="1081" y="609" as="sourcePoint" />
            <mxPoint x="1081" y="749" as="targetPoint" />
            <mxPoint y="-1" as="offset" />
          </mxGeometry>
        </mxCell>
        <mxCell id="h4NLX7vuD1O3hU5bMPrj-149" value="[ok]" style="endArrow=open;html=1;endSize=12;startArrow=none;startSize=14;startFill=0;align=center;verticalAlign=bottom;endFill=0;rounded=0;exitX=1;exitY=0.5;exitDx=0;exitDy=0;entryX=0;entryY=0.5;entryDx=0;entryDy=0;" edge="1" parent="1" source="h4NLX7vuD1O3hU5bMPrj-145" target="h4NLX7vuD1O3hU5bMPrj-8">
          <mxGeometry y="3" relative="1" as="geometry">
            <mxPoint x="940" y="564" as="sourcePoint" />
            <mxPoint x="1200" y="554" as="targetPoint" />
          </mxGeometry>
        </mxCell>
        <mxCell id="h4NLX7vuD1O3hU5bMPrj-155" value="[ok]" style="endArrow=open;html=1;endSize=12;startArrow=none;startSize=14;startFill=0;align=center;verticalAlign=bottom;endFill=0;rounded=0;exitX=1;exitY=0.5;exitDx=0;exitDy=0;entryX=0;entryY=0.5;entryDx=0;entryDy=0;" edge="1" parent="1" source="h4NLX7vuD1O3hU5bMPrj-55" target="h4NLX7vuD1O3hU5bMPrj-39">
          <mxGeometry y="3" relative="1" as="geometry">
            <mxPoint x="1350" y="825" as="sourcePoint" />
            <mxPoint x="1430" y="807.5" as="targetPoint" />
          </mxGeometry>
        </mxCell>
        <mxCell id="h4NLX7vuD1O3hU5bMPrj-156" value="" style="html=1;align=center;verticalAlign=middle;rounded=1;absoluteArcSize=1;arcSize=10;dashed=1;whiteSpace=wrap;" vertex="1" parent="1">
          <mxGeometry x="200" y="1520" width="590" height="190" as="geometry" />
        </mxCell>
        <mxCell id="h4NLX7vuD1O3hU5bMPrj-157" value="&lt;b&gt;Main page&lt;/b&gt;" style="rounded=1;whiteSpace=wrap;html=1;fillColor=#fff2cc;strokeColor=#d6b656;opacity=80;" vertex="1" parent="1">
          <mxGeometry x="250" y="1575" width="120" height="60" as="geometry" />
        </mxCell>
        <mxCell id="h4NLX7vuD1O3hU5bMPrj-158" value="" style="endArrow=open;html=1;endSize=12;startArrow=none;startSize=14;startFill=0;edgeStyle=orthogonalEdgeStyle;align=center;verticalAlign=bottom;endFill=0;rounded=0;exitX=1;exitY=0.5;exitDx=0;exitDy=0;entryX=0;entryY=0.5;entryDx=0;entryDy=0;" edge="1" parent="1" source="h4NLX7vuD1O3hU5bMPrj-160" target="h4NLX7vuD1O3hU5bMPrj-157">
          <mxGeometry y="3" relative="1" as="geometry">
            <mxPoint x="520" y="1490" as="sourcePoint" />
            <mxPoint x="680" y="1490" as="targetPoint" />
          </mxGeometry>
        </mxCell>
        <mxCell id="h4NLX7vuD1O3hU5bMPrj-159" value="&quot;Log out&quot;" style="endArrow=open;html=1;endSize=12;startArrow=none;startSize=14;startFill=0;edgeStyle=orthogonalEdgeStyle;align=center;verticalAlign=bottom;endFill=0;rounded=0;exitX=1;exitY=0.5;exitDx=0;exitDy=0;entryX=0;entryY=0.5;entryDx=0;entryDy=0;" edge="1" parent="1" source="h4NLX7vuD1O3hU5bMPrj-157" target="h4NLX7vuD1O3hU5bMPrj-162">
          <mxGeometry y="3" relative="1" as="geometry">
            <mxPoint x="515" y="1470" as="sourcePoint" />
            <mxPoint x="500" y="1605" as="targetPoint" />
          </mxGeometry>
        </mxCell>
        <mxCell id="h4NLX7vuD1O3hU5bMPrj-160" value="" style="ellipse;" vertex="1" parent="1">
          <mxGeometry x="180" y="1590" width="30" height="30" as="geometry" />
        </mxCell>
        <mxCell id="h4NLX7vuD1O3hU5bMPrj-161" value="" style="shape=sumEllipse;perimeter=ellipsePerimeter;html=1;backgroundOutline=1;" vertex="1" parent="1">
          <mxGeometry x="780" y="1590" width="30" height="30" as="geometry" />
        </mxCell>
        <mxCell id="h4NLX7vuD1O3hU5bMPrj-162" value="Clear cookies" style="rounded=1;whiteSpace=wrap;html=1;" vertex="1" parent="1">
          <mxGeometry x="430" y="1575" width="120" height="60" as="geometry" />
        </mxCell>
        <mxCell id="h4NLX7vuD1O3hU5bMPrj-165" value="[ok]" style="endArrow=open;html=1;endSize=12;startArrow=none;startSize=14;startFill=0;align=center;verticalAlign=bottom;endFill=0;rounded=0;exitX=1;exitY=0.5;exitDx=0;exitDy=0;entryX=0;entryY=0.5;entryDx=0;entryDy=0;" edge="1" parent="1" source="h4NLX7vuD1O3hU5bMPrj-162" target="h4NLX7vuD1O3hU5bMPrj-177">
          <mxGeometry y="3" relative="1" as="geometry">
            <mxPoint x="340" y="1364.5" as="sourcePoint" />
            <mxPoint x="610" y="1605" as="targetPoint" />
          </mxGeometry>
        </mxCell>
        <mxCell id="h4NLX7vuD1O3hU5bMPrj-168" value="" style="rhombus;whiteSpace=wrap;html=1;" vertex="1" parent="1">
          <mxGeometry x="480" y="1680" width="20" height="10" as="geometry" />
        </mxCell>
        <mxCell id="h4NLX7vuD1O3hU5bMPrj-169" value="" style="endArrow=open;html=1;endSize=12;startArrow=none;startSize=14;startFill=0;align=center;verticalAlign=bottom;endFill=0;rounded=0;exitX=0;exitY=0.5;exitDx=0;exitDy=0;entryX=0.5;entryY=1;entryDx=0;entryDy=0;edgeStyle=orthogonalEdgeStyle;" edge="1" parent="1" source="h4NLX7vuD1O3hU5bMPrj-168" target="h4NLX7vuD1O3hU5bMPrj-157">
          <mxGeometry y="3" relative="1" as="geometry">
            <mxPoint x="290" y="1734.5" as="sourcePoint" />
            <mxPoint x="400" y="1725" as="targetPoint" />
          </mxGeometry>
        </mxCell>
        <mxCell id="h4NLX7vuD1O3hU5bMPrj-170" value="[error]" style="endArrow=open;html=1;endSize=12;startArrow=none;startSize=14;startFill=0;align=center;verticalAlign=bottom;endFill=0;rounded=0;entryX=0.5;entryY=0;entryDx=0;entryDy=0;exitX=0.5;exitY=1;exitDx=0;exitDy=0;" edge="1" parent="1" source="h4NLX7vuD1O3hU5bMPrj-162" target="h4NLX7vuD1O3hU5bMPrj-168">
          <mxGeometry x="0.0082" y="20" relative="1" as="geometry">
            <mxPoint x="490" y="1650" as="sourcePoint" />
            <mxPoint x="490" y="1790" as="targetPoint" />
            <mxPoint y="-1" as="offset" />
          </mxGeometry>
        </mxCell>
        <mxCell id="h4NLX7vuD1O3hU5bMPrj-177" value="Remove auth token" style="rounded=1;whiteSpace=wrap;html=1;" vertex="1" parent="1">
          <mxGeometry x="610" y="1575" width="120" height="60" as="geometry" />
        </mxCell>
        <mxCell id="h4NLX7vuD1O3hU5bMPrj-180" value="[error]" style="endArrow=open;html=1;endSize=12;startArrow=none;startSize=14;startFill=0;align=center;verticalAlign=bottom;endFill=0;rounded=0;exitX=0.5;exitY=1;exitDx=0;exitDy=0;edgeStyle=orthogonalEdgeStyle;entryX=1;entryY=0.5;entryDx=0;entryDy=0;" edge="1" parent="1" source="h4NLX7vuD1O3hU5bMPrj-177" target="h4NLX7vuD1O3hU5bMPrj-168">
          <mxGeometry x="0.0082" y="20" relative="1" as="geometry">
            <mxPoint x="1081" y="1659" as="sourcePoint" />
            <mxPoint x="679" y="1684" as="targetPoint" />
            <mxPoint y="-1" as="offset" />
          </mxGeometry>
        </mxCell>
        <mxCell id="h4NLX7vuD1O3hU5bMPrj-181" value="[ok]" style="endArrow=open;html=1;endSize=12;startArrow=none;startSize=14;startFill=0;align=center;verticalAlign=bottom;endFill=0;rounded=0;exitX=1;exitY=0.5;exitDx=0;exitDy=0;entryX=0;entryY=0.5;entryDx=0;entryDy=0;" edge="1" parent="1" source="h4NLX7vuD1O3hU5bMPrj-177" target="h4NLX7vuD1O3hU5bMPrj-161">
          <mxGeometry y="3" relative="1" as="geometry">
            <mxPoint x="940" y="1614" as="sourcePoint" />
            <mxPoint x="1200" y="1604" as="targetPoint" />
          </mxGeometry>
        </mxCell>
      </root>
    </mxGraphModel>
  </diagram>
</mxfile>
